<svg width="18" height="18" viewBox="0 0 18 18" fill="none" xmlns="http://www.w3.org/2000/svg">
<path d="M3.16675 17.3333C2.70841 17.3333 2.31605 17.1701 1.98966 16.8437C1.66328 16.5174 1.50008 16.125 1.50008 15.6667V6.27082C1.25008 6.11805 1.04869 5.92013 0.895915 5.67707C0.743137 5.43402 0.666748 5.15277 0.666748 4.83332V2.33332C0.666748 1.87499 0.829943 1.48263 1.15633 1.15624C1.48272 0.829851 1.87508 0.666656 2.33341 0.666656H15.6667C16.1251 0.666656 16.5174 0.829851 16.8438 1.15624C17.1702 1.48263 17.3334 1.87499 17.3334 2.33332V4.83332C17.3334 5.15277 17.257 5.43402 17.1042 5.67707C16.9515 5.92013 16.7501 6.11805 16.5001 6.27082V15.6667C16.5001 16.125 16.3369 16.5174 16.0105 16.8437C15.6841 17.1701 15.2917 17.3333 14.8334 17.3333H3.16675ZM3.16675 6.49999V15.6667H14.8334V6.49999H3.16675ZM2.33341 4.83332H15.6667V2.33332H2.33341V4.83332ZM6.50008 10.6667H11.5001V8.99999H6.50008V10.6667Z" fill="white"/>
</svg>
