<svg width="176" height="213" viewBox="0 0 176 213" fill="none" xmlns="http://www.w3.org/2000/svg">
<g clip-path="url(#clip0_2_7)">
<path d="M2.20005 123.8C2.20005 122.22 2.20005 121.14 2.20005 120.06C2.18005 91.56 2.20005 0 2.20005 0H48.89L49.16 79.1C49.16 79.1 47.84 79.75 47.3 80.07C29.14 90.77 14.4501 105.01 3.23005 122.84C3.12005 123.02 2.91005 123.15 2.20005 123.79V123.8Z" fill="black"/>
<path d="M148.2 212.89C146.67 212.89 145.59 212.89 144.5 212.89C127.27 212.89 90.18 212.93 90.18 212.93L63.21 176.89C63.21 176.89 63.76 175.02 63.92 174.54C68.82 159.3 78.91 148.93 93.83 143.21C94.56 142.93 96.82 142.56 96.82 142.56C96.82 142.56 130.8 188.99 147.47 211.43C147.66 211.69 147.77 212.02 148.2 212.89Z" fill="black"/>
<path d="M175.59 97.71L105.89 48.66L105.63 78.44C79.51 79.52 50.9901 90 28.8801 113.78C-0.229946 145.1 5.56607e-05 173.29 5.56607e-05 212.76C16.0601 212.76 46.9901 212.76 46.9901 212.76C46.9901 212.76 46.0301 191.89 47.0101 182.36C50.1401 151.84 74.8001 127.87 105.23 125.6L105.06 145.55L175.59 97.71Z" fill="black"/>
</g>
<defs>
<clipPath id="clip0_2_7">
<rect width="175.59" height="212.93" fill="white"/>
</clipPath>
</defs>
</svg>
